<svg width="25" height="26" viewBox="0 0 25 26" fill="none" xmlns="http://www.w3.org/2000/svg">
<path d="M4.67143 26C3.87143 26 3.19048 25.7406 2.62857 25.2218C2.06667 24.703 1.78571 24.0749 1.78571 23.3373V2.9182H0V1.2695H7.14286V0H17.8571V1.2695H25V2.9182H23.2143V23.3373C23.2143 24.0957 22.9393 24.7294 22.3893 25.2383C21.8393 25.7472 21.1524 26.0011 20.3286 26H4.67143ZM21.4286 2.9182H3.57143V23.3373C3.57143 23.633 3.6744 23.8759 3.88036 24.0661C4.08631 24.2562 4.35 24.3513 4.67143 24.3513H20.3304C20.6042 24.3513 20.856 24.2458 21.0857 24.0347C21.3155 23.8237 21.4298 23.5907 21.4286 23.3357V2.9182ZM8.58571 21.0539H10.3714V6.2156H8.58571V21.0539ZM14.6286 21.0539H16.4143V6.2156H14.6286V21.0539Z" fill="#111111"/>
</svg>
