<svg width="30" height="30" viewBox="0 0 30 30" fill="none" xmlns="http://www.w3.org/2000/svg">
<path d="M20.9536 20.2104L22.6203 18.3357C22.8807 18.0428 23.3338 18.2478 23.3338 18.6696V27.1879C23.3338 28.7404 22.214 30 20.8338 30H2.50005C1.11982 30 0 28.7404 0 27.1879V6.56593C0 5.01343 1.11982 3.75384 2.50005 3.75384H16.7452C17.115 3.75384 17.3025 4.25768 17.042 4.55646L15.3753 6.43119C15.2972 6.51906 15.193 6.56593 15.0785 6.56593H2.50005V27.1879H20.8338V20.5385C20.8338 20.4155 20.8755 20.2983 20.9536 20.2104ZM29.11 8.38793L15.4326 23.7724L10.7242 24.3582C9.35958 24.5281 8.19809 23.2334 8.34914 21.6868L8.86998 16.3907L22.5474 1.0062C23.7401 -0.3354 25.6672 -0.3354 26.8547 1.0062L29.1048 3.53708C30.2975 4.87868 30.2975 7.05219 29.11 8.38793ZM23.9641 10.1982L20.938 6.79441L11.2607 17.6854L10.8804 21.511L14.2816 21.0833L23.9641 10.1982ZM27.3391 5.52898L25.0891 2.9981C24.8755 2.7579 24.5266 2.7579 24.3182 2.9981L22.7088 4.80838L25.7349 8.21218L27.3443 6.40189C27.5527 6.15584 27.5527 5.76917 27.3391 5.52898Z" fill="#111111"/>
</svg>
