<svg width="24" height="24" viewBox="0 0 24 24" fill="none" xmlns="http://www.w3.org/2000/svg">
<path d="M22 4C22 3.3 22 2.95 21.8625 2.6825C21.7431 2.4474 21.5523 2.25616 21.3175 2.13625C21.05 2 20.7 2 20 2H4C3.3 2 2.95 2 2.6825 2.13625C2.44731 2.25609 2.25609 2.44731 2.13625 2.6825C2 2.95 2 3.3 2 4V4.92125C2 5.2275 2 5.38 2.035 5.52375C2.06561 5.65172 2.11623 5.77407 2.185 5.88625C2.26125 6.01125 2.37 6.12 2.585 6.33625L8.91375 12.6638C9.13 12.88 9.23875 12.9887 9.315 13.1137C9.38375 13.2262 9.435 13.3487 9.465 13.4762C9.5 13.6187 9.5 13.77 9.5 14.0687V20.0137C9.5 21.085 9.5 21.6212 9.725 21.9437C9.82262 22.0832 9.9477 22.2013 10.0926 22.2907C10.2374 22.3801 10.3991 22.439 10.5675 22.4638C10.9563 22.5213 11.4362 22.2825 12.3937 21.8025L13.3937 21.3025C13.7962 21.1025 13.9962 21.0025 14.1425 20.8525C14.2722 20.72 14.3709 20.5603 14.4312 20.385C14.5 20.1875 14.5 19.9625 14.5 19.5137V14.0788C14.5 13.7725 14.5 13.62 14.535 13.4762C14.5656 13.3483 14.6162 13.2259 14.685 13.1137C14.76 12.9887 14.8688 12.8812 15.0813 12.6687L15.0862 12.6638L21.415 6.33625C21.63 6.12 21.7375 6.01125 21.815 5.88625C21.8839 5.77412 21.9345 5.65176 21.965 5.52375C22 5.3825 22 5.23 22 4.93125V4Z" stroke="#545454" stroke-width="2.5" stroke-linecap="round" stroke-linejoin="round"/>
</svg>
