<svg width="50" height="50" viewBox="0 0 50 50" fill="none" xmlns="http://www.w3.org/2000/svg">
<path d="M32.8125 0L50 8.66568V27.9911L46.875 26.4156V12.1861L34.375 18.4884V24.84L31.25 26.4156V18.4884L18.75 12.1861V17.7745L15.625 16.1989V8.66568L32.8125 0ZM32.8125 15.7558L37.1338 13.5647L25.8301 7.04087L20.6787 9.65042L32.8125 15.7558ZM40.5029 11.8907L44.9463 9.65042L32.8125 3.52043L29.1748 5.36681L40.5029 11.8907ZM28.125 27.9911L25 29.5667V29.5421L15.625 34.2688V45.4702L25 40.7189V44.2639L14.0625 49.7784L0 42.6637V26.0217L14.0625 18.9316L28.125 26.0217V27.9911ZM12.5 45.4702V34.2688L3.125 29.5421V40.7189L12.5 45.4702ZM14.0625 31.5362L23.0713 27.0064L14.0625 22.452L5.05371 27.0064L14.0625 31.5362ZM28.125 31.5116L39.0625 25.997L50 31.5116V44.4855L39.0625 50L28.125 44.4855V31.5116ZM37.5 45.6918V38.1832L31.25 35.032V42.5406L37.5 45.6918ZM46.875 42.5406V35.032L40.625 38.1832V45.6918L46.875 42.5406ZM39.0625 35.4505L44.9463 32.4717L39.0625 29.5175L33.1787 32.4717L39.0625 35.4505Z" fill="#1990F2"/>
</svg>
