<svg width="25" height="25" viewBox="0 0 25 25" fill="none" xmlns="http://www.w3.org/2000/svg">
<path fill-rule="evenodd" clip-rule="evenodd" d="M10.4436 0.979739C10.732 0.979739 10.9658 1.21351 10.9658 1.50192V11.4233C10.9658 11.7117 10.732 11.9455 10.4436 11.9455H0.52218C0.233774 11.9455 0 11.7117 0 11.4233V1.50192C0 1.21351 0.233774 0.979739 0.52218 0.979739H10.4436ZM8.74652 3.199H2.21927V9.72625H8.74652V3.199ZM24.8471 6.06074C25.051 6.26465 25.051 6.59529 24.8471 6.7992L18.9392 12.707C18.7353 12.9109 18.4047 12.9109 18.2008 12.707L12.293 6.7992C12.0891 6.59529 12.0891 6.26465 12.293 6.06074L18.2008 0.152933C18.4047 -0.0509778 18.7353 -0.0509778 18.9393 0.152933L24.8471 6.06074ZM22.0778 6.42996L18.57 2.92225L15.0623 6.42999L18.57 9.93773L22.0778 6.42996ZM10.4436 14.0342C10.732 14.0342 10.9658 14.268 10.9658 14.5564V24.4778C10.9658 24.7662 10.732 25 10.4436 25H0.52218C0.233774 25 0 24.7662 0 24.4778V14.5564C0 14.268 0.233774 14.0342 0.52218 14.0342H10.4436ZM8.74652 16.2535H2.21927V22.7807H8.74652V16.2535ZM23.4981 14.0342C23.7865 14.0342 24.0203 14.268 24.0203 14.5564V24.4778C24.0203 24.7662 23.7865 25 23.4981 25H13.5767C13.2883 25 13.0545 24.7662 13.0545 24.4778V14.5564C13.0545 14.268 13.2883 14.0342 13.5767 14.0342H23.4981ZM21.801 16.2535H15.2738V22.7807H21.801V16.2535Z" fill="white"/>
</svg>
