<svg width="30" height="30" viewBox="0 0 30 30" fill="none" xmlns="http://www.w3.org/2000/svg">
<path d="M4.5 30C3.675 30 2.969 29.7065 2.382 29.1195C1.795 28.5325 1.501 27.826 1.5 27V10.0875C1.05 9.8125 0.6875 9.4565 0.4125 9.0195C0.1375 8.5825 0 8.076 0 7.5V3C0 2.175 0.294 1.469 0.882 0.882C1.47 0.295 2.176 0.001 3 0H27C27.825 0 28.5315 0.294 29.1195 0.882C29.7075 1.47 30.001 2.176 30 3V7.5C30 8.075 29.8625 8.5815 29.5875 9.0195C29.3125 9.4575 28.95 9.813 28.5 10.086V27C28.5 27.825 28.2065 28.5315 27.6195 29.1195C27.0325 29.7075 26.326 30.001 25.5 30H4.5ZM4.5 10.5V27H25.5V10.5H4.5ZM3 7.5H27V3H3V7.5ZM10.5 18H19.5V15H10.5V18Z" fill="black"/>
</svg>
